<?xml version="1.0" encoding="utf-8"?>
<!-- Generator: Adobe Illustrator 28.3.0, SVG Export Plug-In . SVG Version: 6.00 Build 0)  -->
<svg version="1.1" id="_Слой_1" xmlns="http://www.w3.org/2000/svg" xmlns:xlink="http://www.w3.org/1999/xlink" x="0px"
	 y="0px" viewBox="0 0 43.3 39.9" style="enable-background:new 0 0 43.3 39.9;" xml:space="preserve">
<style type="text/css">
	.st0{fill:#0071E3;}
</style>
<path class="st0" d="M1.3,24c3.3,4.1,6.4,8.4,10,12.2c1.3,1.4,3,2.8,4.8,3.3c3.5,1.1,6.4-1.8,8.2-4.4c3.4-4.8,6.4-9.9,9.7-14.8
	c3.1-4.5,5.7-9.2,8.7-13.8c1.3-2,0.5-5.1-1.6-6.2c-2.3-1.2-4.8-0.5-6.2,1.6c-2.4,3.6-4.5,7.4-6.9,11.1s-4.7,7.3-7.1,10.9
	c-0.7,1-1.3,2-2,3l-1.5,2.3c-0.3,0.4-0.5,0.8-0.8,1.2c-0.1,0.1-0.2,0.4-0.3,0.5c0.4-0.2,0.4-0.6,0-0.1c-0.2,0.2-0.8,0.6,0.1,0
	c-0.3,0.2-0.6,0.1,0.3-0.1l1.3,0.2c1.4,0.4,1.7,0.4,1.2,0.1c-0.1-0.1-0.3-0.2-0.4-0.2c-0.6-0.4,0.8,0.6-0.1-0.1
	c-0.2-0.2-0.4-0.4-0.6-0.5c-3.9-3.8-7-8.4-10.4-12.6c-1.5-1.9-4.8-1.6-6.4,0C-0.5,19.7-0.3,22.1,1.3,24L1.3,24L1.3,24z"/>
</svg>
