<?xml version="1.0" encoding="UTF-8"?>
<svg id="_Шар_1" data-name="Шар 1" xmlns="http://www.w3.org/2000/svg" viewBox="0 0 47 56">
  <defs>
    <style>
      .cls-1 {
        fill: none;
      }

      .cls-1, .cls-2 {
        stroke-width: 0px;
      }

      .cls-2 {
        fill: #678cb2;
      }
    </style>
  </defs>
  <rect class="cls-1" width="47" height="56"/>
  <g>
    <path class="cls-2" d="M18.2,33c-.5,0-1.1.1-1.7.1h-2l-.6.4c-1.7,1.1-3.5,2.1-5.5,2.9.5-.7,1-1.4,1.4-2.2l1-1.8-1.9-.9c-4.1-1.9-6.6-5.5-6.6-9.4.2-6.4,6.7-11.4,14.6-11.4s14.3,5,14.4,11.1c.7-.1,1.3-.1,2-.1-.2-7.2-7.4-13-16.4-13-9.1,0-16.4,5.9-16.4,13.2,0,4.8,3.1,9,7.7,11.2-.7,1.3-1.5,2.5-2.5,3.6-.8.9-.4,2,1,2,1.8,0,5.5-1.7,8.5-3.7h1.4c.6,0,1.1,0,1.6-.1v-1.9Z"/>
    <path class="cls-2" d="M46.5,34.3c0-5.9-5.8-10.6-13.2-10.6h-.2c-.7,0-1.4.1-2.1.2-5.6.8-10,4.4-10.8,8.9-.1.5-.1,1-.1,1.5v.5c.3,5.8,6.2,10,13.4,10h1.1c2.3,1.6,5.3,2.9,6.8,2.9,1.1,0,1.4-.8.8-1.6-.7-.9-1.4-1.9-2-2.9,3.8-1.7,6.3-5.1,6.3-8.9ZM39.5,41.4l-1.9.9,1,1.8c.1.2.3.5.4.7-1.1-.5-2.1-1.1-3.1-1.7l-.6-.4h-1.7c-6.4,0-11.4-3.7-11.4-8.5v-.1c0-.7.1-1.4.3-2.1,1-3,4-5.4,7.8-6.2.8-.2,1.5-.3,2.3-.3h.7c6.2,0,11.2,3.9,11.2,8.6-.1,3.3-2.1,6.1-5,7.3h0Z"/>
  </g>
</svg>