<?xml version="1.0" encoding="utf-8"?>
<!-- Generator: Adobe Illustrator 28.3.0, SVG Export Plug-In . SVG Version: 6.00 Build 0)  -->
<svg version="1.1" id="Шар_1" xmlns="http://www.w3.org/2000/svg" xmlns:xlink="http://www.w3.org/1999/xlink" x="0px" y="0px"
	 viewBox="0 0 40 40" style="enable-background:new 0 0 40 40;" xml:space="preserve">
<style type="text/css">
	.st0{fill:#678CB2;}
</style>
<path class="st0" d="M20,4.3c-4.3,0-4.8,0-6.5,0.1s-2.8,0.3-3.8,0.7c-1,0.4-1.9,1-2.7,1.8C6.1,7.8,5.5,8.7,5.1,9.7s-0.7,2.1-0.7,3.8
	c-0.1,1.7-0.1,2.2-0.1,6.5s0,4.8,0.1,6.5s0.3,2.8,0.7,3.8c0.4,1,0.9,1.9,1.8,2.8c0.9,0.9,1.7,1.4,2.8,1.8c1,0.4,2.1,0.7,3.8,0.7
	c1.7,0.1,2.2,0.1,6.5,0.1s4.8,0,6.5-0.1s2.8-0.3,3.8-0.7s1.9-0.9,2.8-1.8c0.9-0.9,1.4-1.7,1.8-2.8c0.4-1,0.7-2.1,0.7-3.8
	c0.1-1.7,0.1-2.2,0.1-6.5s0-4.8-0.1-6.5s-0.3-2.8-0.7-3.8S34,7.8,33.1,6.9c-0.9-0.9-1.7-1.4-2.8-1.8c-1-0.4-2.1-0.7-3.8-0.7
	C24.8,4.3,24.3,4.3,20,4.3L20,4.3z M18.6,7.1c0.4,0,0.9,0,1.4,0c4.2,0,4.7,0,6.3,0.1c1.5,0.1,2.4,0.3,2.9,0.5
	C29.9,8,30.5,8.3,31,8.9c0.5,0.5,0.9,1.1,1.2,1.8c0.2,0.6,0.5,1.4,0.5,2.9c0.1,1.7,0.1,2.1,0.1,6.3s0,4.7-0.1,6.3
	c-0.1,1.5-0.3,2.4-0.5,2.9c-0.3,0.7-0.6,1.3-1.2,1.8c-0.5,0.5-1.1,0.9-1.8,1.2c-0.6,0.2-1.4,0.5-2.9,0.5c-1.7,0.1-2.1,0.1-6.3,0.1
	s-4.7,0-6.3-0.1c-1.5-0.1-2.4-0.3-2.9-0.5C10,31.9,9.5,31.6,8.9,31c-0.5-0.5-0.9-1.1-1.2-1.8c-0.2-0.6-0.5-1.4-0.5-2.9
	c-0.1-1.7-0.1-2.1-0.1-6.3s0-4.7,0.1-6.3c0.1-1.5,0.3-2.4,0.5-2.9C8.1,10,8.4,9.5,8.9,8.9S10,8,10.7,7.7c0.6-0.2,1.4-0.5,2.9-0.5
	S15.7,7.1,18.6,7.1L18.6,7.1z M28.4,9.7c-1,0-1.9,0.8-1.9,1.9c0,1,0.8,1.9,1.9,1.9s1.9-0.8,1.9-1.9l0,0C30.3,10.6,29.4,9.7,28.4,9.7
	L28.4,9.7z M20,11.9c-4.4,0-8.1,3.6-8.1,8.1s3.6,8.1,8.1,8.1c4.4,0,8.1-3.6,8.1-8.1S24.4,11.9,20,11.9L20,11.9z M20,14.8
	c2.9,0,5.2,2.3,5.2,5.2s-2.3,5.2-5.2,5.2s-5.2-2.3-5.2-5.2S17.1,14.8,20,14.8z"/>
</svg>
