<?xml version="1.0" encoding="utf-8"?>
<!-- Generator: Adobe Illustrator 27.7.0, SVG Export Plug-In . SVG Version: 6.00 Build 0)  -->
<svg version="1.1" id="Шар_1" xmlns="http://www.w3.org/2000/svg" xmlns:xlink="http://www.w3.org/1999/xlink" x="0px" y="0px"
	 viewBox="0 0 50 50" style="enable-background:new 0 0 50 50;" xml:space="preserve">
<style type="text/css">
	.st0{fill:#FFFFFF;}
</style>
<path class="st0" d="M28.2,0.2c-16.4-2.1-30.1,11.7-28,28c1.4,11.2,10.4,20.2,21.6,21.6c16.4,2.1,30.1-11.7,28-28
	C48.4,10.6,39.4,1.6,28.2,0.2z M34.9,34.9c-0.9,0.9-2.4,0.9-3.3,0L25,28.6l-6.4,6.5c-0.9,0.9-2.4,0.9-3.3,0L15,34.8
	c-0.9-0.9-0.9-2.4,0-3.3l6.4-6.5l-6.6-6.5c-0.9-0.9-0.9-2.4,0-3.3l0.4-0.4c0.9-0.9,2.4-0.9,3.3,0l6.5,6.4l6.4-6.5
	c0.9-0.9,2.4-0.9,3.3,0l0.3,0.3c0.9,0.9,0.9,2.4,0,3.3l-6.5,6.6l6.6,6.5c0.9,0.9,1,2.4-0.1,3.4L34.9,34.9z"/>
</svg>
