<?xml version="1.0" encoding="utf-8"?>
<!-- Generator: Adobe Illustrator 28.3.0, SVG Export Plug-In . SVG Version: 6.00 Build 0)  -->
<svg version="1.1" id="_Слой_1" xmlns="http://www.w3.org/2000/svg" xmlns:xlink="http://www.w3.org/1999/xlink" x="0px"
	 y="0px" viewBox="0 0 205.4 283" style="enable-background:new 0 0 205.4 283;" xml:space="preserve">
<style type="text/css">
	.st0{clip-path:url(#SVGID_00000095324904774074076890000014257943795909490099_);}
	.st1{clip-path:url(#SVGID_00000096036356984744652070000016398725425629875091_);}
	.st2{fill:url(#SVGID_00000057142374722534545130000013632836056389351580_);}
</style>
<g>
	<defs>
		<rect id="SVGID_1_" x="2" y="33" width="200" height="250"/>
	</defs>
	<clipPath id="SVGID_00000183236162605628352600000017610884871968523915_">
		<use xlink:href="#SVGID_1_"  style="overflow:visible;"/>
	</clipPath>
	<g style="clip-path:url(#SVGID_00000183236162605628352600000017610884871968523915_);">
		<g>
			<defs>
				<rect id="SVGID_00000016768968682228264010000005887858424716836504_" x="2" width="200" height="250"/>
			</defs>
			<clipPath id="SVGID_00000023267735726266144480000011372352581702949261_">
				<use xlink:href="#SVGID_00000016768968682228264010000005887858424716836504_"  style="overflow:visible;"/>
			</clipPath>
			<g style="clip-path:url(#SVGID_00000023267735726266144480000011372352581702949261_);">
				
					<linearGradient id="SVGID_00000161628711247067090420000001726880535682891188_" gradientUnits="userSpaceOnUse" x1="-993.4182" y1="178.156" x2="-788.0182" y2="178.156" gradientTransform="matrix(-1 0 0 -1 -788.02 284)">
					<stop  offset="0" style="stop-color:#0071E3"/>
					<stop  offset="0.1108" style="stop-color:#0875E4"/>
					<stop  offset="0.2794" style="stop-color:#1D80E7"/>
					<stop  offset="0.4847" style="stop-color:#3F93EC"/>
					<stop  offset="0.7189" style="stop-color:#6FACF3"/>
					<stop  offset="0.9744" style="stop-color:#ACCDFB"/>
					<stop  offset="1" style="stop-color:#B2D0FC"/>
				</linearGradient>
				<path style="fill:url(#SVGID_00000161628711247067090420000001726880535682891188_);" d="M0.5,69.2c4.3,3.5,8.6,7.1,13,10.6
					c3.1,2.5,6.2,5.3,9.6,7.5c0,0.1,0,0.2,0,0.3c0,2.5,2,4.5,4.5,4.5c2.1,0,3.8-1.4,4.3-3.3l42-8.7c0.8,1.2,2.2,2,3.7,2
					c1.2,0,2.3-0.5,3.1-1.2c13.7,4.7,27.2,9.9,40.4,15.7c0,0,0,0.1,0,0.1c0,2.5,2,4.5,4.5,4.5c0.7,0,1.3-0.2,1.8-0.4
					c2.7,2.4,5.4,4.8,8,7.2c11.6,10.5,23.2,20.9,34.8,31.4c-0.1,0.4-0.2,0.8-0.2,1.2c0,2.5,2,4.5,4.5,4.5s4.5-2,4.5-4.5
					c0-0.1,0-0.1,0-0.2c8.7-4.4,17.6-8.6,25.7-13.9c1.6-1.1,0.1-3.7-1.5-2.6c-8,5.3-16.8,9.4-25.4,13.8c-0.8-0.9-2-1.5-3.3-1.5
					c-0.9,0-1.8,0.3-2.6,0.8c-2.6-2.4-5.3-4.7-7.9-7.1l-34.6-31.2c0.3-0.6,0.5-1.3,0.5-2c0-2.5-2-4.5-4.5-4.5
					c-1.4,0-2.6,0.7-3.4,1.6c-13.2-5.7-26.5-10.9-40.1-15.6c0-0.2,0.1-0.4,0.1-0.6c0-2.5-2-4.5-4.5-4.5c-2.3,0-4.2,1.8-4.5,4.1
					c-13.8,2.9-27.6,5.7-41.4,8.6c-0.7-1.6-2.3-2.7-4.1-2.7c-1.3,0-2.5,0.6-3.3,1.4c-3.2-2.1-6.1-4.7-9-7.1
					C11,73.9,6.8,70.5,2.6,67.1C1.1,65.8-1,68,0.5,69.2z M172.7,140.6c0-1.1,0.9-2,2-2s2,0.9,2,2s-0.9,2-2,2
					S172.7,141.7,172.7,140.6z M123.5,96.5c0-1.1,0.9-2,2-2s2,0.9,2,2s-0.9,2-2,2S123.5,97.6,123.5,96.5z M75.5,77.5
					c0-1.1,0.9-2,2-2s2,0.9,2,2s-0.9,2-2,2S75.5,78.6,75.5,77.5z M25.5,87.5c0-1.1,0.9-2,2-2s2,0.9,2,2s-0.9,2-2,2
					S25.5,88.6,25.5,87.5z"/>
			</g>
		</g>
	</g>
</g>
</svg>
