<?xml version="1.0" encoding="utf-8"?>
<!-- Generator: Adobe Illustrator 28.3.0, SVG Export Plug-In . SVG Version: 6.00 Build 0)  -->
<svg version="1.1" id="Шар_1" xmlns="http://www.w3.org/2000/svg" xmlns:xlink="http://www.w3.org/1999/xlink" x="0px" y="0px"
	 viewBox="0 0 40 40" style="enable-background:new 0 0 40 40;" xml:space="preserve">
<style type="text/css">
	.st0{fill:#678CB2;}
</style>
<path class="st0" d="M29,12.2c-0.2-0.1-0.3-0.2-0.5-0.3c-0.6-0.3-1-0.7-1.5-1.1c-1-1.2-1.4-2.3-1.6-3.2l0,0
	c-0.1-0.7-0.1-1.1-0.1-1.1h-4.7v18c0,0.3,0,0.5,0,0.7v0.1l0,0l0,0c-0.1,1.3-0.9,2.5-2,3.1c-0.6,0.3-1.3,0.5-1.9,0.5
	c-2.2,0-4-1.8-4-4s1.7-4,4-4c0.4,0,0.9,0.1,1.2,0.2v-4.7c-2.4-0.3-4.8,0.4-6.6,2c-0.9,0.8-1.6,1.6-2.1,2.5c-0.2,0.3-0.9,1.7-1,3.9
	c-0.1,1.3,0.3,2.6,0.5,3.1l0,0c0.1,0.3,0.5,1.4,1.3,2.3c0.6,0.7,1.3,1.4,2,1.9l0,0l0,0c2.2,1.6,4.7,1.5,4.7,1.5c0.4,0,1.9,0,3.5-0.8
	c1.8-0.9,2.8-2.2,2.8-2.2c0.7-0.8,1.2-1.6,1.6-2.6c0.4-1.1,0.6-2.4,0.6-2.9v-9.6c0.1,0,0.8,0.5,0.8,0.5s1.1,0.7,2.8,1.1
	c1.2,0.3,2.8,0.4,2.8,0.4v-4.7C31.3,13,30.1,12.8,29,12.2z"/>
</svg>
